<?xml version="1.0" standalone="no"?>
<!DOCTYPE svg PUBLIC "-//W3C//DTD SVG 20010904//EN"
 "http://www.w3.org/TR/2001/REC-SVG-20010904/DTD/svg10.dtd">
<svg version="1.0" xmlns="http://www.w3.org/2000/svg"
 width="512.000000pt" height="512.000000pt" viewBox="0 0 512.000000 512.000000"
 preserveAspectRatio="xMidYMid meet">

<g transform="translate(0.000000,512.000000) scale(0.100000,-0.100000)"
fill="#000000" stroke="none">
<path d="M2903 4935 c-168 -47 -293 -163 -349 -324 -12 -36 -30 -118 -39 -181
-19 -127 -52 -265 -84 -351 -37 -98 -95 -172 -259 -336 -226 -225 -294 -329
-393 -602 -51 -138 -134 -317 -167 -359 -18 -23 -18 -23 -77 -7 -48 12 -127
15 -417 15 -224 0 -377 -4 -410 -11 -179 -38 -317 -183 -348 -367 -8 -47 -10
-323 -8 -917 3 -839 4 -851 25 -906 45 -121 120 -203 233 -258 l75 -36 400 -3
c450 -4 478 0 577 65 l53 36 130 -16 c74 -10 201 -36 295 -62 409 -111 580
-139 855 -140 213 0 305 9 589 56 433 73 623 150 779 319 129 140 170 289 122
455 -4 14 7 37 36 75 114 152 155 324 114 482 l-14 56 43 66 c79 116 114 250
97 368 -10 72 -41 165 -69 210 l-20 30 33 72 c47 102 58 149 58 251 0 143 -43
254 -161 411 -111 148 -246 233 -427 268 -89 18 -412 36 -628 36 -112 0 -138
3 -134 13 3 8 35 58 71 111 165 246 206 542 121 870 -79 304 -230 501 -455
596 -69 29 -175 36 -247 15z m165 -354 c20 -11 49 -32 64 -48 117 -124 198
-415 170 -615 -17 -130 -36 -176 -126 -314 -100 -154 -192 -325 -201 -375 -14
-78 31 -161 109 -201 76 -40 129 -46 356 -40 118 2 313 -1 433 -7 308 -17 368
-39 467 -170 63 -84 94 -161 85 -216 -3 -22 -24 -79 -45 -126 -70 -152 -70
-212 2 -350 65 -125 58 -175 -39 -301 -24 -32 -50 -73 -58 -92 -21 -49 -19
-122 5 -191 23 -66 26 -131 8 -172 -7 -15 -38 -63 -70 -106 -85 -115 -108
-217 -73 -334 18 -60 12 -83 -37 -139 -81 -92 -199 -142 -457 -194 -277 -55
-439 -74 -656 -74 -242 -1 -322 11 -655 96 -129 33 -261 66 -293 74 -55 13
-220 36 -359 49 l-68 7 0 819 c0 772 1 820 18 825 61 20 84 34 141 88 121 116
201 256 301 531 91 248 154 343 357 534 251 236 336 411 403 835 22 138 42
185 88 211 37 20 86 18 130 -4z m-1770 -3043 l-3 -913 -265 2 c-241 2 -267 4
-290 21 -51 38 -50 11 -50 887 0 761 1 823 18 855 29 58 40 60 330 60 l262 0
-2 -912z"/>
<path d="M947 1106 c-50 -18 -76 -42 -98 -91 -24 -52 -24 -89 2 -142 58 -120
233 -122 296 -3 13 24 23 57 23 74 0 38 -30 105 -58 129 -22 20 -86 46 -112
46 -8 0 -32 -6 -53 -13z"/>
</g>
</svg>
