<svg width="24px" height="24px" viewBox="0 0 24 24" version="1.1" xmlns="http://www.w3.org/2000/svg" xmlns:xlink="http://www.w3.org/1999/xlink" fill="#000000">
  <g id="SVGRepo_bgCarrier" stroke-width="0"/>
  <g id="SVGRepo_tracerCarrier" stroke-linecap="round" stroke-linejoin="round"/>
  <g id="SVGRepo_iconCarrier">
    <title>cancel</title>
    <desc>Created with Sketch.</desc>
    <defs>
      <linearGradient x1="50%" y1="0%" x2="50%" y2="100%" id="linearGradient-1">
        <stop stop-color="#FC4343" offset="0%"></stop>
        <stop stop-color="#F82020" offset="100%"></stop>
      </linearGradient>
    </defs>
    <g id="icons" stroke="none" stroke-width="1" fill="none" fill-rule="evenodd">
      <g id="ui-gambling-website-lined-icnos-casinoshunter" transform="translate(-868.000000, -1910.000000)" fill="url(#linearGradient-1)" fill-rule="nonzero">
        <g id="4" transform="translate(50.000000, 1871.000000)">
          <path d="M821.426657,39.5856848 L830.000001,48.1592624 L838.573343,39.5856848 C839.288374,38.8706535 840.421422,38.8040611 841.267835,39.4653242 L841.414315,39.5987208 C842.195228,40.3796338 842.195228,41.645744 841.414306,42.4266667 L832.840738,51 L841.414315,59.5733429 C842.129347,60.2883742 842.195939,61.4214224 841.534676,62.2678347 L841.401279,62.4143152 C840.620366,63.1952283 839.354256,63.1952283 838.573333,62.4143055 L830.000001,53.8407376 L821.426657,62.4143152 C820.711626,63.1293465 819.578578,63.1959389 818.732165,62.5346758 L818.585685,62.4012792 C817.804772,61.6203662 817.804772,60.354256 818.585694,59.5733333 L827.159262,51 L818.585685,42.4266571 C817.870653,41.7116258 817.804061,40.5785776 818.465324,39.7321653 L818.598721,39.5856848 C819.379634,38.8047717 820.645744,38.8047717 821.426657,39.5856848 Z M820.028674,61.999873 C820.023346,61.9999577 820.018018,62 820.012689,62 Z M820.161408,61.9889406 L820.117602,61.9945129 L820.117602,61.9945129 C820.132128,61.9929912 820.146788,61.9911282 820.161408,61.9889406 Z M819.865274,61.9891349 L819.883098,61.9916147 C819.877051,61.9908286 819.87101,61.9899872 819.864975,61.9890905 L819.865274,61.9891349 Z M819.739652,61.9621771 L819.755271,61.9664589 C819.749879,61.9650278 819.744498,61.9635509 819.739126,61.9620283 L819.739652,61.9621771 Z M820.288411,61.9614133 L820.234515,61.9752112 L820.234515,61.9752112 C820.252527,61.971132 820.270527,61.9665268 820.288411,61.9614133 Z M820.401572,61.921544 L820.359957,61.9380009 L820.359957,61.9380009 C820.373809,61.9328834 820.387743,61.9273763 820.401572,61.921544 Z M819.623655,61.9214803 C819.628579,61.923546 819.626191,61.9225499 819.623806,61.921544 L819.623655,61.9214803 Z M819.506361,61.8625673 L819.400002,61.7903682 C819.444408,61.8248958 819.491056,61.8551582 819.539393,61.8811554 L819.506361,61.8625673 L819.506361,61.8625673 Z M820.51858,61.8628242 L820.486378,61.8809439 L820.486378,61.8809439 C820.496939,61.8752641 820.507806,61.8691536 820.51858,61.8628242 Z M840.881155,61.4606074 L840.862567,61.4936392 L840.862567,61.4936392 L840.790368,61.5999978 C840.824896,61.555592 840.855158,61.5089438 840.881155,61.4606074 Z M840.936494,61.3386283 L840.92148,61.3763453 L840.92148,61.3763453 C840.926791,61.3637541 840.931774,61.3512293 840.936494,61.3386283 Z M840.974777,61.2110466 L840.962177,61.2603479 L840.962177,61.2603479 C840.966711,61.2443555 840.97096,61.2277405 840.974777,61.2110466 Z M840.994445,61.0928727 L840.989135,61.1347261 L840.989135,61.1347261 C840.991174,61.1210064 840.992958,61.1069523 840.994445,61.0928727 Z M839.987311,40.9996529 L830,50.9872374 L820.012689,40.9996529 L819.999653,41.0126889 L829.987237,51 L819.999653,60.9873111 L820.012689,61.0003471 L830,51.0127626 L839.987311,61.0003471 L840.000347,60.9873111 L830.012763,51 L840.000347,41.0126889 L839.987311,40.9996529 Z M840.999873,60.9713258 L840.999916,61.0003193 L840.999916,61.0003193 C841.000041,60.9907089 841.000027,60.9810165 840.999873,60.9713258 Z M840.988941,60.8385918 L840.994513,60.8823981 L840.994513,60.8823981 C840.992991,60.8678719 840.991128,60.8532122 840.988941,60.8385918 Z M840.961413,60.7115886 L840.975211,60.7654853 L840.975211,60.7654853 C840.971132,60.7474727 840.966527,60.7294733 840.961413,60.7115886 Z M840.921544,60.5984278 L840.938001,60.6400431 L840.938001,60.6400431 C840.932883,60.6261908 840.927376,60.612257 840.921544,60.5984278 Z M840.862824,60.4814199 L840.880944,60.5136217 L840.880944,60.5136217 C840.875264,60.503061 840.869154,60.4921945 840.862824,60.4814199 Z M840.790368,60.3763452 L840.599997,60.4674339 L840.599997,60.4674339 C840.555593,60.444409 840.508944,60.4051579 840.481155,60.3791607 L840.494126,60.3888242 L840.513093,60.3891615 C840.516169,60.3887305 840.518697,60.3882096 840.520707,60.3876072 C840.523911,60.3870405 840.528171,60.3859983 840.532358,60.3854248 L840.499999,60.4256875 L840.46764,60.4996137 C840.47906,60.5134176 840.490283,60.5275244 840.500697,60.5414702 L840.453442,60.5914236 L840.426664,60.6000454 C840.407053,60.6070293 840.387835,60.6121971 840.368303,60.6170705 L840.345087,60.6327066 C840.298628,60.6628326 840.242156,60.7100674 840.171991,60.7722449 C839.948169,60.8757289 839.761556,61.0112464 839.572088,61.1590577 L839.539682,61.2009654 C839.360383,61.4413577 839.127896,61.7277093 838.824645,62.0428979 C838.549406,62.3212239 838.212162,62.5157175 837.841116,62.6303834 L837.797548,62.6445197 C837.525205,62.7553409 837.191472,62.8267412 836.860867,62.8270624 L836.860578,62.8270623 L836.860867,62.8270624 L836.860578,62.8270623 Z M836.849354,62.8255107 L836.846576,62.8256373 C836.846576,62.8256373 836.848697,62.8255177 836.849354,62.8255107 Z"></path>
        </g>
      </g>
    </g>
  </g>
</svg>
