<?xml version="1.0" standalone="no"?>
<!DOCTYPE svg PUBLIC "-//W3C//DTD SVG 20010904//EN"
 "http://www.w3.org/TR/2001/REC-SVG-20010904/DTD/svg10.dtd">
<svg version="1.0" xmlns="http://www.w3.org/2000/svg"
 width="512.000000pt" height="512.000000pt" viewBox="0 0 512.000000 512.000000"
 preserveAspectRatio="xMidYMid meet">

<g transform="translate(0.000000,512.000000) scale(0.100000,-0.100000)"
fill="#000000" stroke="none">
<path d="M2370 5114 c-19 -2 -78 -9 -130 -15 -548 -62 -1083 -325 -1489 -730
-405 -406 -652 -907 -732 -1489 -18 -125 -18 -515 0 -640 80 -582 327 -1083
732 -1489 658 -657 1607 -906 2504 -654 929 260 1646 1043 1819 1987 156 845
-103 1682 -705 2285 -399 398 -879 639 -1449 726 -100 15 -472 28 -550 19z
m525 -319 c292 -46 575 -148 825 -297 86 -52 303 -209 316 -229 4 -7 -149
-167 -357 -375 l-363 -363 -44 82 c-158 296 -373 518 -561 578 -90 29 -212 29
-302 0 -202 -64 -420 -300 -594 -641 -166 -328 -303 -745 -376 -1150 -19 -103
-23 -161 -23 -330 0 -188 2 -213 25 -297 l25 -92 -302 -302 c-172 -172 -306
-299 -313 -295 -20 13 -178 230 -230 317 -523 875 -396 1978 314 2728 349 368
882 627 1400 681 123 12 438 4 560 -15z m1438 -837 c106 -137 174 -245 252
-403 110 -223 170 -412 211 -670 25 -154 25 -496 0 -650 -40 -252 -100 -444
-206 -661 -223 -458 -585 -820 -1045 -1045 -216 -105 -408 -165 -660 -205
-154 -25 -496 -25 -650 0 -397 64 -720 200 -1032 433 -62 46 -115 88 -119 94
-4 7 109 126 261 279 l268 268 57 -72 c162 -204 432 -361 700 -406 106 -18
297 -16 403 4 434 83 785 410 903 841 26 94 28 112 28 305 0 170 -4 226 -22
330 -37 203 -89 401 -163 625 l-70 209 403 403 c222 222 406 403 410 403 4 0
36 -37 71 -82z m-1673 -71 c60 -27 182 -152 252 -257 31 -47 84 -138 119 -204
l62 -118 -684 -684 c-376 -376 -688 -684 -693 -684 -16 0 1 309 23 430 120
653 420 1314 679 1492 87 60 152 67 242 25z m596 -1014 c94 -303 144 -553 151
-768 5 -130 2 -162 -16 -238 -61 -258 -233 -468 -474 -582 -118 -57 -213 -77
-357 -77 -144 0 -239 20 -357 76 -134 64 -259 168 -342 286 l-32 44 688 688
c378 378 691 688 695 688 4 0 24 -53 44 -117z"/>
</g>
</svg>
