<?xml version="1.0" standalone="no"?>
<!DOCTYPE svg PUBLIC "-//W3C//DTD SVG 20010904//EN"
 "http://www.w3.org/TR/2001/REC-SVG-20010904/DTD/svg10.dtd">
<svg version="1.0" xmlns="http://www.w3.org/2000/svg"
 width="512.000000pt" height="512.000000pt" viewBox="0 0 512.000000 512.000000"
 preserveAspectRatio="xMidYMid meet">

<g transform="translate(0.000000,512.000000) scale(0.100000,-0.100000)"
fill="#000000" stroke="none">
<path d="M2327 5109 c-358 -35 -716 -145 -1010 -310 -988 -557 -1488 -1655
-1261 -2767 99 -484 349 -943 706 -1294 1004 -987 2615 -981 3608 14 1032
1035 992 2722 -87 3700 -533 483 -1252 725 -1956 657z m507 -204 c602 -71
1154 -369 1542 -835 271 -325 442 -699 515 -1125 26 -154 36 -459 20 -616 -45
-434 -200 -835 -456 -1178 -39 -53 -92 -118 -116 -144 l-44 -48 -430 432
c-256 256 -425 433 -417 436 41 16 193 142 298 247 213 214 348 451 418 731
37 149 47 234 47 395 0 235 -37 383 -113 457 -174 167 -534 283 -881 283 -273
0 -482 -48 -719 -166 -174 -86 -366 -222 -388 -273 -25 -62 20 -131 87 -131
31 0 54 12 129 69 129 96 325 204 415 226 l26 6 6 -83 c33 -502 388 -1012 851
-1224 47 -21 86 -42 86 -45 0 -4 -42 -49 -93 -101 -93 -94 -233 -206 -295
-236 l-33 -16 -1164 1164 c-1124 1124 -1164 1165 -1147 1183 27 31 150 129
237 189 313 218 700 363 1085 407 125 14 396 12 534 -4z m-1519 -1245 l490
-490 -18 -27 c-72 -112 -150 -298 -188 -445 -16 -64 -47 -256 -49 -299 0 -4
-26 0 -57 8 -88 22 -252 19 -348 -6 -126 -33 -269 -109 -354 -187 -104 -97
-134 -171 -97 -242 19 -37 102 -113 172 -158 123 -79 337 -164 413 -164 22 0
23 -3 17 -37 -31 -186 -6 -422 61 -573 58 -132 142 -157 287 -84 159 80 307
234 382 397 28 62 64 197 64 239 0 24 4 28 18 24 62 -20 217 -47 317 -56 251
-22 542 28 777 133 l58 26 451 -447 451 -447 -48 -44 c-220 -200 -551 -384
-869 -482 -366 -113 -819 -129 -1199 -44 -854 192 -1531 834 -1762 1672 -64
235 -78 346 -79 628 0 278 10 366 70 600 66 259 171 494 318 715 77 116 210
280 226 280 4 0 227 -220 496 -490z m2092 74 c57 -8 143 -26 191 -40 108 -31
317 -132 355 -171 41 -44 60 -151 60 -343 0 -227 -43 -413 -137 -600 -34 -66
-48 -84 -62 -82 -11 2 -68 27 -129 57 -406 199 -686 620 -721 1082 l-7 91 49
7 c27 3 56 8 64 9 44 10 246 4 337 -10z m-369 -1896 c-272 -104 -585 -116
-873 -33 -103 30 -295 119 -342 159 -81 69 -105 347 -52 611 27 134 60 229
121 353 l51 104 584 -584 583 -583 -72 -27z m-1550 367 c48 -14 63 -23 66 -39
3 -11 10 -55 16 -96 28 -171 81 -244 243 -334 l89 -49 -7 -61 c-9 -85 -31
-161 -68 -231 -39 -74 -172 -209 -243 -247 l-51 -27 -16 52 c-44 141 -48 357
-8 474 48 143 21 180 -141 193 -64 6 -131 18 -175 34 -91 31 -218 97 -263 136
l-35 30 45 41 c55 51 183 114 270 134 79 18 193 14 278 -10z"/>
<path d="M3414 3481 c-32 -14 -54 -51 -54 -89 0 -72 67 -116 133 -88 42 17 57
41 57 90 0 66 -74 113 -136 87z"/>
</g>
</svg>
