<svg width="77" height="77" xmlns="http://www.w3.org/2000/svg" data-name="Layer 1">

 <title>gluten-free</title>
 <g>
  <title>Layer 1</title>
  <path id="svg_2" fill-rule="evenodd" fill="#fff" d="m38.64284,5.30005a33.34,33.34 0 1 1 -33.34,33.33a33.34,33.34 0 0 1 33.34,-33.33z" class="cls-1"/>
  <path id="svg_3" fill-rule="evenodd" d="m47.83284,28.58005c6.34,1.2 10.46,-1.85 11.24,-11.19c-3.74,0 -13.11,1.51 -11.24,11.19zm-12.06,14.42c4,4.63 6.88,5.71 14.56,0c-5,-2.89 -9.3,-6.83 -14.56,0zm7.3,-7.31c3.69,4.31 6.42,5.32 13.56,0c-4.63,-2.69 -8.65,-6.36 -13.56,0zm-17.91,13.19c-5.21,-4.46 -6.43,-7.76 0,-16.4c3.26,5.61 7.7,10.47 0,16.4zm8.26,-8.23c-4.63,-3.95 -5.71,-6.88 0,-14.56c2.89,5 6.83,9.3 0,14.56zm7.31,-7.3c-4.3,-3.69 -5.31,-6.41 0,-13.56c2.7,4.64 6.37,8.66 0,13.56zm-13.19,17.91c4.46,5.21 7.76,6.43 16.4,0c-5.61,-3.26 -10.47,-7.7 -16.4,0zm-5.07,0.37a1.64,1.64 0 0 1 2.32,2.37l-3.71,3.72a1.64,1.64 0 0 1 -2.32,-2.33l3.71,-3.71l0,-0.05z" class="cls-2"/>
  <path id="svg_4" d="m38.64284,0.00005a38.28,38.28 0 0 0 -7.55,0.74a37.56,37.56 0 0 0 -7.23,2.19a38.2,38.2 0 0 0 -6.68,3.57a38.77,38.77 0 0 0 -5.86,4.81a38.63,38.63 0 0 0 -8.39,12.55a38.66,38.66 0 0 0 3.57,36.23a39.22,39.22 0 0 0 4.82,5.91l0.06,0.06a39.08,39.08 0 0 0 5.8,4.76a39.59,39.59 0 0 0 6.68,3.57a38.68,38.68 0 0 0 29.55,0a38.63,38.63 0 0 0 12.55,-8.39a38.75,38.75 0 0 0 8.38,-12.6a37.46,37.46 0 0 0 2.19,-7.22a38.83,38.83 0 0 0 0,-15.09a37.34,37.34 0 0 0 -2.19,-7.23a38.2,38.2 0 0 0 -3.57,-6.68a39.24,39.24 0 0 0 -4.81,-5.87a38.63,38.63 0 0 0 -5.87,-4.81a38.2,38.2 0 0 0 -6.68,-3.57a37.34,37.34 0 0 0 -7.23,-2.19a38.26,38.26 0 0 0 -7.54,-0.74zm-25.25,19.33l44.55,44.55a1.17,1.17 0 0 1 0,1.66a0.83,0.83 0 0 1 -0.21,0.17a33,33 0 0 1 -3.9,2.37a31.46,31.46 0 0 1 -4.25,1.83a32.17,32.17 0 0 1 -5.33,1.39a34.1,34.1 0 0 1 -5.56,0.46a33,33 0 0 1 -6.48,-0.63a33,33 0 0 1 -11.96,-4.94a33.49,33.49 0 0 1 -5,-4.13a33.6,33.6 0 0 1 -7.2,-10.76a33.08,33.08 0 0 1 -2.5,-12.54l0,-0.13a32.91,32.91 0 0 1 0.47,-5.55a32.54,32.54 0 0 1 1.39,-5.39a31.46,31.46 0 0 1 1.83,-4.25a33.18,33.18 0 0 1 2.41,-4a1.17,1.17 0 0 1 1.6,-0.24l0.15,0.13l-0.01,0zm48.7,40.91l-45.06,-45.06a1.17,1.17 0 0 1 0,-1.66l0.13,-0.12a33.12,33.12 0 0 1 4.35,-3.13a32.26,32.26 0 0 1 4.85,-2.42a32.75,32.75 0 0 1 6,-1.76a34.17,34.17 0 0 1 6.27,-0.59a33.64,33.64 0 0 1 6.47,0.63a33.19,33.19 0 0 1 6.21,1.87a32.7,32.7 0 0 1 5.72,3.06a33.11,33.11 0 0 1 14.11,21.1a33.64,33.64 0 0 1 0.63,6.47a34.17,34.17 0 0 1 -0.59,6.27a32.75,32.75 0 0 1 -1.76,6a33.28,33.28 0 0 1 -5.61,9.26a1.17,1.17 0 0 1 -1.65,0.13l-0.07,-0.06l0,0.01z"/>
 </g>
</svg>