<?xml version="1.0" standalone="no"?>
<!DOCTYPE svg PUBLIC "-//W3C//DTD SVG 20010904//EN"
 "http://www.w3.org/TR/2001/REC-SVG-20010904/DTD/svg10.dtd">
<svg version="1.0" xmlns="http://www.w3.org/2000/svg"
 width="512.000000pt" height="512.000000pt" viewBox="0 0 512.000000 512.000000"
 preserveAspectRatio="xMidYMid meet">

<g transform="translate(0.000000,512.000000) scale(0.100000,-0.100000)"
fill="#000000" stroke="none">
<path d="M2380 4794 c-196 -18 -455 -78 -628 -145 -665 -261 -1180 -836 -1357
-1515 -53 -204 -69 -331 -69 -569 -1 -242 11 -345 65 -559 195 -778 820 -1407
1599 -1610 219 -57 327 -70 565 -70 233 -1 356 14 559 65 780 196 1407 820
1610 1599 57 221 70 327 70 570 0 243 -13 349 -70 570 -223 857 -946 1508
-1829 1645 -97 15 -425 27 -515 19z m381 -164 c377 -38 747 -182 1048 -408 95
-71 273 -243 357 -343 353 -424 524 -1000 459 -1554 -48 -406 -216 -797 -476
-1104 l-62 -73 -444 443 -444 444 39 35 c22 19 104 91 183 159 357 308 490
484 551 728 18 72 22 115 22 238 -1 130 -4 164 -27 250 -83 311 -312 595 -552
684 -195 73 -553 3 -792 -156 -126 -83 -241 -213 -322 -363 -53 -100 -84 -184
-127 -348 -20 -76 -39 -140 -43 -144 -3 -4 -226 212 -495 481 l-488 488 73 63
c420 355 996 534 1540 480z m643 -669 c76 -37 174 -124 242 -214 59 -78 137
-239 166 -342 32 -114 32 -316 0 -428 -24 -85 -67 -176 -115 -247 -49 -70
-189 -212 -342 -344 -77 -66 -168 -147 -203 -180 l-63 -60 -416 416 -415 415
20 64 c12 35 31 102 42 149 65 266 148 427 287 561 168 163 402 252 644 245
75 -2 96 -6 153 -35z m-1367 -1039 c-42 -46 -115 -92 -278 -178 -191 -101
-274 -154 -358 -231 -182 -164 -281 -425 -281 -741 0 -414 312 -721 810 -797
304 -47 557 23 739 205 98 97 167 207 302 480 65 132 122 240 126 240 5 0 203
-195 442 -434 l433 -433 -73 -62 c-422 -357 -994 -536 -1540 -481 -406 41
-812 210 -1119 465 -99 83 -271 261 -342 356 -467 623 -548 1456 -208 2155 65
135 186 321 281 433 l62 73 513 -513 513 -513 -22 -24z m542 -496 l403 -403
-28 -44 c-15 -24 -73 -139 -130 -255 -154 -316 -248 -444 -387 -522 -290 -165
-810 -60 -1032 207 -95 115 -130 237 -121 421 10 233 70 398 193 530 79 85
155 136 365 246 163 85 240 136 294 193 16 16 31 30 34 31 3 0 187 -182 409
-404z"/>
<path d="M3020 3712 c-191 -123 -331 -330 -371 -545 -12 -63 -11 -69 8 -95 15
-20 30 -28 60 -30 52 -4 68 15 93 114 49 191 164 347 323 439 73 42 89 94 42
140 -36 37 -70 32 -155 -23z"/>
<path d="M3471 3103 c-12 -11 -28 -43 -36 -78 -42 -164 -151 -299 -298 -369
-80 -39 -97 -56 -97 -101 0 -33 41 -75 74 -75 54 0 189 76 273 153 100 92 192
262 209 384 6 47 4 54 -19 77 -31 31 -75 34 -106 9z"/>
<path d="M2036 2385 c-136 -38 -265 -131 -344 -248 -49 -74 -92 -179 -92 -224
0 -34 43 -73 80 -73 35 0 80 38 80 67 0 37 61 145 111 198 64 68 161 118 258
135 56 9 75 17 91 37 26 33 25 63 -1 97 -18 23 -27 26 -77 25 -31 0 -79 -7
-106 -14z"/>
<path d="M2513 1825 c-11 -8 -28 -36 -37 -61 -52 -153 -205 -283 -373 -318
-75 -16 -103 -40 -103 -88 0 -38 40 -78 77 -78 51 0 146 29 233 72 120 59 219
159 283 287 26 51 47 106 47 122 0 62 -76 100 -127 64z"/>
</g>
</svg>
