<?xml version="1.0" standalone="no"?>
<!DOCTYPE svg PUBLIC "-//W3C//DTD SVG 20010904//EN"
 "http://www.w3.org/TR/2001/REC-SVG-20010904/DTD/svg10.dtd">
<svg version="1.0" xmlns="http://www.w3.org/2000/svg"
 width="512.000000pt" height="512.000000pt" viewBox="0 0 512.000000 512.000000"
 preserveAspectRatio="xMidYMid meet">

<g transform="translate(0.000000,512.000000) scale(0.100000,-0.100000)"
fill="#000000" stroke="none">
<path d="M2330 5110 c-494 -48 -950 -230 -1350 -538 -195 -150 -448 -432 -594
-662 -63 -99 -186 -351 -230 -471 -49 -134 -102 -340 -128 -499 -31 -195 -31
-565 0 -760 45 -276 116 -498 237 -745 132 -269 269 -460 489 -681 221 -220
412 -357 681 -489 247 -121 469 -192 745 -237 195 -31 565 -31 760 0 276 45
498 116 745 237 269 132 460 269 681 489 220 221 357 412 489 681 88 179 132
296 180 476 63 240 78 371 78 649 0 278 -15 409 -78 649 -48 180 -92 297 -180
476 -132 269 -269 460 -489 681 -221 220 -412 357 -681 489 -246 121 -474 193
-740 235 -147 23 -475 34 -615 20z m550 -226 c339 -49 662 -168 950 -352 253
-161 541 -449 702 -702 352 -551 461 -1214 303 -1841 -83 -329 -250 -655 -472
-922 -36 -42 -68 -77 -71 -77 -4 0 -229 222 -501 494 l-493 493 50 76 c28 41
69 113 91 160 56 123 103 170 231 230 185 87 289 165 390 292 150 190 226 445
200 675 -18 156 -121 565 -164 647 -11 23 -30 37 -69 51 -149 56 -468 135
-609 151 -234 27 -491 -50 -685 -204 -114 -90 -199 -201 -277 -360 -76 -155
-116 -198 -243 -256 -47 -22 -119 -63 -160 -91 l-76 -50 -493 493 c-272 272
-494 497 -494 501 0 3 35 35 78 71 506 422 1169 612 1812 521z m-1551 -1248
l493 -493 -50 -76 c-28 -41 -69 -113 -91 -160 -56 -123 -103 -170 -231 -230
-185 -87 -289 -165 -390 -292 -150 -190 -226 -443 -200 -675 22 -201 136 -627
179 -671 43 -42 468 -156 667 -179 275 -30 556 71 760 274 84 84 143 172 211
316 60 128 107 175 230 231 47 22 119 63 160 91 l76 50 493 -493 c272 -272
494 -497 494 -501 0 -10 -147 -130 -240 -195 -544 -379 -1217 -507 -1870 -356
-233 53 -514 173 -730 311 -253 161 -541 449 -702 702 -352 551 -461 1214
-303 1841 83 329 250 655 472 922 36 42 68 77 71 77 4 0 229 -222 501 -494z
m2174 394 c136 -26 399 -98 414 -113 15 -15 87 -278 113 -414 37 -190 22 -337
-49 -487 -81 -173 -194 -280 -396 -376 -186 -88 -249 -151 -345 -345 -33 -66
-68 -130 -77 -143 l-18 -22 -88 88 -88 88 25 56 c83 188 46 390 -98 534 -144
144 -346 181 -534 98 l-56 -25 -88 88 -88 88 22 18 c13 9 77 44 143 77 194 96
257 159 345 345 87 183 174 285 309 365 163 95 341 121 554 80z m-1377 -1272
c-83 -188 -46 -390 98 -534 144 -144 346 -181 534 -98 l56 25 88 -88 88 -88
-22 -18 c-13 -9 -77 -44 -143 -77 -192 -95 -257 -160 -342 -339 -64 -134 -91
-175 -165 -253 -130 -135 -325 -218 -511 -218 -116 0 -310 38 -532 105 l-81
24 -42 158 c-105 389 -108 547 -13 747 81 173 194 280 396 376 180 85 253 156
332 320 24 52 59 117 75 143 l31 49 89 -89 89 -89 -25 -56z m545 40 c91 -38
153 -135 152 -239 -1 -106 -2 -105 -188 81 -181 182 -174 168 -100 183 30 7
85 -3 136 -25z m-37 -491 c-9 -5 -41 -9 -73 -10 -144 -1 -264 116 -264 258 0
115 -3 116 184 -71 136 -135 166 -170 153 -177z"/>
<path d="M3253 3825 c-238 -52 -403 -296 -364 -538 42 -259 288 -439 544 -398
259 42 439 288 398 544 -16 101 -62 189 -135 262 -73 73 -142 111 -233 130
-82 18 -129 18 -210 0z m218 -227 c128 -54 187 -212 130 -344 -73 -167 -296
-210 -428 -82 -122 118 -90 342 59 419 82 42 152 44 239 7z"/>
<path d="M1653 2225 c-238 -52 -403 -296 -364 -538 33 -204 194 -365 399 -398
313 -51 594 230 543 544 -16 101 -62 189 -135 262 -73 73 -142 111 -233 130
-82 18 -129 18 -210 0z m218 -227 c128 -54 187 -212 130 -344 -91 -209 -391
-209 -482 0 -54 125 -3 277 113 337 82 42 152 44 239 7z"/>
</g>
</svg>
