<?xml version="1.0" standalone="no"?>
<!DOCTYPE svg PUBLIC "-//W3C//DTD SVG 20010904//EN"
 "http://www.w3.org/TR/2001/REC-SVG-20010904/DTD/svg10.dtd">
<svg version="1.0" xmlns="http://www.w3.org/2000/svg"
 width="512.000000pt" height="512.000000pt" viewBox="0 0 512.000000 512.000000"
 preserveAspectRatio="xMidYMid meet">

<g transform="translate(0.000000,512.000000) scale(0.100000,-0.100000)"
fill="#000000" stroke="none">
<path d="M2365 5114 c-16 -2 -73 -9 -125 -15 -450 -51 -917 -250 -1289 -549
-286 -230 -516 -519 -681 -855 -126 -257 -197 -476 -241 -755 -27 -165 -32
-535 -10 -690 85 -610 340 -1117 767 -1530 427 -412 968 -658 1564 -710 744
-65 1487 208 2016 738 408 410 651 903 736 1497 17 121 17 523 0 640 -89 591
-331 1081 -732 1485 -479 482 -1144 755 -1825 748 -82 0 -163 -3 -180 -4z
m535 -309 c325 -51 645 -174 911 -350 93 -62 242 -178 266 -206 10 -13 -78
-104 -520 -546 -507 -505 -534 -531 -581 -542 -27 -7 -49 -11 -51 -9 -1 2 -22
117 -48 256 -52 285 -65 320 -137 364 -39 23 -102 38 -458 103 -512 94 -497
92 -553 68 -70 -31 -750 -451 -788 -486 -42 -40 -61 -84 -61 -141 0 -61 197
-1110 215 -1145 18 -35 72 -83 111 -99 16 -6 155 -34 309 -62 154 -28 283 -52
288 -53 4 -1 -201 -210 -456 -465 l-463 -463 -72 88 c-269 328 -432 699 -498
1133 -21 138 -24 462 -5 590 65 446 226 823 494 1155 82 101 268 282 373 362
342 260 724 413 1162 463 111 13 439 4 562 -15z m1427 -819 c247 -305 417
-690 478 -1081 37 -231 30 -546 -17 -780 -136 -691 -580 -1276 -1206 -1590
-756 -378 -1644 -311 -2332 176 -98 69 -202 155 -208 170 -2 5 225 239 504
519 497 499 508 510 545 508 l37 -1 -4 -91 c-5 -82 -3 -95 18 -130 13 -22 39
-52 58 -67 19 -15 205 -123 412 -239 283 -159 389 -214 420 -217 31 -4 163 22
471 92 235 53 440 100 455 106 48 18 102 80 117 134 7 27 48 287 91 577 56
385 75 539 70 572 -14 93 -34 108 -451 344 -209 118 -388 217 -397 219 -10 3
-18 8 -18 12 0 3 194 200 432 438 359 359 434 430 447 420 8 -7 43 -48 78 -91z
m-2142 -306 c181 -34 330 -62 332 -64 2 -1 -138 -89 -310 -194 l-313 -191
-357 66 c-197 37 -354 70 -350 74 5 4 145 91 313 193 239 146 310 185 330 181
14 -2 173 -32 355 -65z m468 -212 c13 -55 68 -360 65 -363 -2 -1 -57 -15 -123
-29 -200 -44 -218 -51 -263 -100 -22 -24 -45 -59 -50 -77 -5 -19 -31 -184 -57
-366 -27 -183 -50 -331 -52 -329 -6 5 -163 858 -163 881 1 15 72 64 313 212
172 105 315 192 318 192 4 1 9 -9 12 -21z m-1166 -333 c190 -35 347 -66 349
-68 5 -4 175 -929 172 -933 -3 -3 -720 126 -725 131 -3 1 -173 918 -173 929 0
11 26 7 377 -59z m2136 -296 c177 -100 325 -184 329 -188 4 -4 -158 -44 -360
-89 l-368 -82 -332 187 -333 187 108 24 c163 35 554 123 588 132 17 5 34 9 38
9 5 1 153 -81 330 -180z m-830 -313 c175 -98 319 -181 321 -185 4 -8 -131
-911 -137 -918 -5 -5 -623 339 -641 357 -6 6 -3 52 7 117 54 367 117 799 117
806 0 12 -17 21 333 -177z m1217 -60 c0 -34 -132 -902 -138 -908 -7 -7 -715
-168 -720 -164 -1 2 28 209 66 462 67 453 68 459 92 467 29 9 669 154 688 156
6 1 12 -5 12 -13z"/>
</g>
</svg>
